<svg xmlns="http://www.w3.org/2000/svg"><defs><font id="OpenSans" horiz-adv-x="1159"><font-face font-family="Open Sans Light" units-per-em="2048" panose-1="2 11 3 6 3 5 4 2 2 4" ascent="2189" descent="-600" alphabetic="0"/><glyph glyph-name="space" horiz-adv-x="532"/><glyph unicode="!" glyph-name="exclam" horiz-adv-x="492" d="M276 377h-61l-29 1085h119L276 377zM164 78q0 98 80 98 82 0 82-98t-82-98q-80 0-80 98z"/><glyph unicode="&quot;" glyph-name="quotedbl" horiz-adv-x="723" d="M260 1462l-33-528h-61l-33 528h127zm330 0l-33-528h-61l-33 528h127z"/><glyph unicode="#" glyph-name="numbersign" horiz-adv-x="1323" d="M967 928l-76-398h303v-79H874L788 0h-90l88 451H426L340 0h-88l86 451H55v79h299l76 398H133v80h311l86 454h91l-89-454h365l88 454h86l-88-454h285v-80H967zM440 530h363l78 398H518l-78-398z"/><glyph unicode="$" glyph-name="dollar" horiz-adv-x="1169" d="M991 440q0-133-99-217T618 117v-236h-81v232q-92 2-200 22t-173 51v103q75-36 179-61t194-25v508q-145 44-215 88T220 903t-32 146q0 124 94 208t255 105v192h81v-190q197-9 351-72l-33-90q-141 62-318 72V788q213-66 293-144t80-204zm-110 4q0 85-63 140t-200 96V209q122 13 192 75t71 160zm-584 605q0-86 57-141t183-93v453q-119-16-179-76t-61-143z"/><glyph unicode="%" glyph-name="percent" horiz-adv-x="1653" d="M211 1026q0-186 45-279t141-94q193 0 193 373 0 184-49 276t-144 93q-96 0-141-92t-45-277zm477 0q0-226-75-343T397 565q-133 0-208 120t-76 341q0 223 72 340t212 117q139 0 215-120t76-337zm375-588q0-185 45-277t141-93q193 0 193 370 0 369-193 369-96 0-141-91t-45-278zm477 0q0-226-74-343T1251-23q-136 0-211 121t-75 340q0 225 73 341t213 116q137 0 213-120t76-337zm-260 1024L469 0h-96l811 1462h96z"/><glyph unicode="&amp;" glyph-name="ampersand" horiz-adv-x="1460" d="M123 371q0 138 73 235t275 205l-75 82q-66 71-98 139t-32 142q0 143 95 227t257 84q155 0 245-81t91-224q0-105-70-192T631 793l452-457q61 72 104 157t75 201h96q-63-246-209-426L1415 0h-135l-193 197q-92-90-164-131T766 2 571-20Q362-20 243 83T123 371zM578 70q128 0 234 43t210 147L539 745q-136-72-196-122t-88-110-28-138q0-143 93-224t258-81zM373 1176q0-79 40-146t152-174q159 85 221 159t62 169q0 94-62 152t-168 59q-114 0-179-58t-66-161z"/><glyph unicode="'" glyph-name="quotesingle" horiz-adv-x="393" d="M260 1462l-33-528h-61l-33 528h127z"/><glyph unicode="(" glyph-name="parenleft" horiz-adv-x="557" d="M82 561q0 265 77 496t224 405h113q-148-182-227-412t-79-487q0-483 304-887H383Q236-154 159 73T82 561z"/><glyph unicode=")" glyph-name="parenright" horiz-adv-x="557" d="M475 561q0-263-77-490T174-324H63Q367 80 367 563q0 257-79 487T61 1462h113q147-175 224-406t77-495z"/><glyph unicode="*" glyph-name="asterisk" horiz-adv-x="1128" d="M631 1556l-37-405 405 104 21-131-395-39 247-340-124-71-191 379-180-379-125 71 242 340-390 39 19 131 401-104-39 405h146z"/><glyph unicode="+" glyph-name="plus" horiz-adv-x="1169" d="M625 764h434v-82H625V250h-82v432H111v82h432v434h82V764z"/><glyph unicode="," glyph-name="comma" horiz-adv-x="440" d="M295 238l12-21Q232-48 133-264H68q77 275 110 502h117z"/><glyph unicode="-" glyph-name="hyphen" horiz-adv-x="659" d="M92 512v82h475v-82H92z"/><glyph unicode="." glyph-name="period" horiz-adv-x="487" d="M162 78q0 98 80 98 82 0 82-98t-82-98q-80 0-80 98z"/><glyph unicode="/" glyph-name="slash" horiz-adv-x="698" d="M674 1462L129 0H25l544 1462h105z"/><glyph unicode="0" glyph-name="zero" horiz-adv-x="1169" d="M1055 735q0-385-117-570T582-20q-229 0-348 190T115 735q0 382 115 566t352 184q231 0 352-190t121-560zm-832 0q0-340 89-502T582 70q189 0 275 168t87 497q0 324-86 492t-276 168q-189 0-274-168t-85-492z"/><glyph unicode="1" glyph-name="one" horiz-adv-x="1169" d="M682 0h-98v1065q0 145 12 301-15-15-31-29t-309-243l-57 71 397 297h86V0z"/><glyph unicode="2" glyph-name="two" horiz-adv-x="1169" d="M1028 0H113v88l389 406q164 170 230 260t97 172 31 172q0 131-86 213t-223 82q-183 0-350-133l-54 69q183 154 406 154 191 0 300-102t110-281q0-145-73-280T621 485L246 100v-4h782V0z"/><glyph unicode="3" glyph-name="three" horiz-adv-x="1169" d="M979 1118q0-136-85-229T664 770v-6q176-22 268-112t92-242q0-205-139-317T483-20Q260-20 94 63v99q84-44 188-69t197-25q221 0 332 89t111 253q0 145-113 223t-334 78H317v96h160q182 0 288 86t107 235q0 122-86 195t-227 74q-109 0-199-30t-202-105l-49 67q85 71 205 112t243 42q202 0 312-95t110-270z"/><glyph unicode="4" glyph-name="four" horiz-adv-x="1169" d="M1141 373H889V0h-94v373H43v67l725 1030h121V459h252v-86zm-346 86v418q0 302 14 507h-8q-20-37-123-188L162 459h633z"/><glyph unicode="5" glyph-name="five" horiz-adv-x="1169" d="M537 879q234 0 368-113t135-311q0-225-140-350T514-20Q405-20 307 1T143 63v103q108-55 192-76t179-22q192 0 308 101t116 275q0 163-113 256t-307 93q-130 0-272-39l-60 39 58 669h704v-96H338l-45-516q156 29 244 29z"/><glyph unicode="6" glyph-name="six" horiz-adv-x="1169" d="M131 623q0 285 77 479t220 289 344 94q94 0 172-23v-88q-73 27-176 27-247 0-384-178T229 705h13q76 98 174 148t207 50q205 0 320-117t116-323q0-224-121-353T610-20q-222 0-350 169T131 623zM610 68q164 0 255 103t91 294q0 168-90 262t-245 94q-102 0-189-45T292 657t-52-153q0-111 49-213t134-163 187-60z"/><glyph unicode="7" glyph-name="seven" horiz-adv-x="1169" d="M334 0l602 1366H109v96h946v-73L451 0H334z"/><glyph unicode="8" glyph-name="eight" horiz-adv-x="1169" d="M582 1487q186 0 299-95t114-257q0-112-70-198T696 778q192-79 270-173t78-228q0-181-126-289T578-20Q357-20 239 81T121 375q0 131 83 230t257 169q-161 76-227 160t-66 203q0 105 53 184t148 123 213 43zM223 360q0-138 93-214t262-76q164 0 264 80t100 219q0 124-78 201T561 733q-184-71-261-157t-77-216zm357 1037q-141 0-226-69t-86-191q0-70 31-123t91-97 200-102q163 63 234 139t71 183q0 120-84 190t-231 70z"/><glyph unicode="9" glyph-name="nine" horiz-adv-x="1169" d="M1036 842q0-288-75-482T741 73 391-20Q287-20 199 6v86q43-14 103-21t93-8q247 0 387 178t156 521h-12q-73-96-174-147t-211-52q-203 0-316 112T111 993q0 220 124 356t324 136q144 0 252-75t166-222 59-346zm-477 555q-158 0-252-106t-94-292q0-174 87-264t249-90q101 0 188 45t139 119 52 152q0 117-46 219t-130 159-193 58z"/><glyph unicode=":" glyph-name="colon" horiz-adv-x="487" d="M162 78q0 98 80 98 82 0 82-98t-82-98q-80 0-80 98zm0 893q0 98 80 98 82 0 82-98 0-53-23-76t-59-23q-34 0-57 23t-23 76z"/><glyph unicode=";" glyph-name="semicolon" horiz-adv-x="487" d="M303 238l12-21Q240-48 141-264H76q29 97 62 245t48 257h117zM162 971q0 98 80 98 82 0 82-98 0-53-23-76t-59-23q-34 0-57 23t-23 76z"/><glyph unicode="&lt;" glyph-name="less" horiz-adv-x="1169" d="M1059 266L111 682v61l948 474v-95L236 717l823-355v-96z"/><glyph unicode="=" glyph-name="equal" horiz-adv-x="1169" d="M111 885v82h948v-82H111zm0-408v82h948v-82H111z"/><glyph unicode="&gt;" glyph-name="greater" horiz-adv-x="1169" d="M111 362l823 355-823 405v95l948-474v-61L111 266v96z"/><glyph unicode="?" glyph-name="question" horiz-adv-x="862" d="M293 377v37q0 123 37 201t139 167l91 79q72 61 103 121t31 138q0 127-83 202t-220 75q-79 0-148-17t-149-57l-37 80q110 48 184 64t154 16q183 0 288-98t105-271q0-68-18-119t-50-94-79-84-102-88q-64-54-98-98t-50-94-16-146v-14h-82zM260 78q0 98 80 98 82 0 82-98t-82-98q-80 0-80 98z"/><glyph unicode="@" glyph-name="at" horiz-adv-x="1815" d="M1702 725q0-228-90-366t-246-138q-89 0-144 54t-65 147h-4q-43-100-124-150t-189-51q-148 0-229 96t-81 271q0 202 120 330t315 129q138 0 286-41l-22-464v-30q0-104 35-156t116-53q103 0 168 116t66 304q0 194-79 340t-225 224-335 79q-230 0-405-99T300 985t-95-418q0-322 167-497t474-176q93 0 188 18t232 70v-99q-203-80-414-80-349 0-544 200T113 561q0 256 108 460t307 318 449 113q215 0 380-89t255-254 90-384zM633 590q0-143 55-215t174-72q255 0 273 346l16 291q-79 27-193 27-149 0-237-102t-88-275z"/><glyph unicode="A" glyph-name="A" horiz-adv-x="1229" d="M911 516H317L113 0H0l588 1468h65L1229 0h-115L911 516zm-557 92h523l-199 527q-25 62-60 172-27-96-59-174L354 608z"/><glyph unicode="B" glyph-name="B" horiz-adv-x="1284" d="M207 1462h401q271 0 398-92t127-278q0-127-77-211T829 772v-6q175-26 257-110t83-236q0-202-134-311T655 0H207v1462zm102-651h322q206 0 299 68t94 215q0 146-105 212t-315 66H309V811zm0-90V90h344q406 0 406 330 0 301-428 301H309z"/><glyph unicode="C" glyph-name="C" horiz-adv-x="1272" d="M831 1391q-275 0-433-176T240 733q0-313 149-486T815 74q184 0 338 47V31q-145-51-362-51-308 0-485 199T129 735q0 223 84 393t243 262 369 93q214 0 383-80l-41-92q-160 80-336 80z"/><glyph unicode="D" glyph-name="D" horiz-adv-x="1446" d="M1317 745q0-368-193-556T557 0H207v1462h395q350 0 532-183t183-534zm-111-4q0 314-159 472t-469 159H309V90h242q655 0 655 651z"/><glyph unicode="E" glyph-name="E" horiz-adv-x="1130" d="M1006 0H207v1462h799v-94H309V815h658v-94H309V94h697V0z"/><glyph unicode="F" glyph-name="F" horiz-adv-x="1028" d="M309 0H207v1462h801v-94H309V748h660v-95H309V0z"/><glyph unicode="G" glyph-name="G" horiz-adv-x="1481" d="M782 737h539V70q-212-90-477-90-346 0-530 195T129 729q0 223 91 395t262 267 392 94q239 0 429-88l-41-92q-190 88-394 88-289 0-458-178T240 733q0-330 161-496T874 70q202 0 343 57v514H782v96z"/><glyph unicode="H" glyph-name="H" horiz-adv-x="1473" d="M1266 0h-103v719H309V0H207v1462h102V813h854v649h103V0z"/><glyph unicode="I" glyph-name="I" horiz-adv-x="516" d="M207 0v1462h102V0H207z"/><glyph unicode="J" glyph-name="J" horiz-adv-x="506" d="M-33-369q-92 0-151 27v88q78-20 149-20 242 0 242 264v1472h102V0q0-369-342-369z"/><glyph unicode="K" glyph-name="K" horiz-adv-x="1190" d="M1190 0h-125L504 772 309 600V0H207v1462h102V702l162 162 573 598h130L575 844 1190 0z"/><glyph unicode="L" glyph-name="L" horiz-adv-x="1051" d="M207 0v1462h102V96h697V0H207z"/><glyph unicode="M" glyph-name="M" horiz-adv-x="1767" d="M850 0L305 1350h-8q8-124 8-254V0h-98v1462h158L883 176h6l518 1286h154V0h-103v1108q0 116 12 240h-8L915 0h-65z"/><glyph unicode="N" glyph-name="N" horiz-adv-x="1477" d="M1270 0h-103L301 1298h-8q12-232 12-350V0h-98v1462h102l865-1296h6q-9 180-9 342v954h99V0z"/><glyph unicode="O" glyph-name="O" horiz-adv-x="1565" d="M1436 733q0-348-174-550T782-20q-305 0-479 202T129 735q0 349 175 549t480 201q306 0 479-201t173-551zm-1196 0q0-314 140-485T782 76q264 0 403 170t140 487q0 316-139 484t-402 169q-261 0-402-170T240 733z"/><glyph unicode="P" glyph-name="P" horiz-adv-x="1198" d="M1087 1042q0-212-144-325T535 604H309V0H207v1462h358q522 0 522-420zM309 692h201q247 0 357 81t110 265q0 169-104 250t-322 82H309V692z"/><glyph unicode="Q" glyph-name="Q" horiz-adv-x="1565" d="M1436 733q0-294-126-486T961 0l333-348h-166L846-18l-33-2h-31q-305 0-479 202T129 735q0 349 175 549t480 201q306 0 479-201t173-551zm-1196 0q0-314 140-485T782 76q264 0 403 170t140 487q0 316-139 484t-402 169q-261 0-402-170T240 733z"/><glyph unicode="R" glyph-name="R" horiz-adv-x="1217" d="M309 637V0H207v1462h348q272 0 402-100t130-303q0-147-77-248T774 666L1171 0h-122L672 637H309zm0 88h279q185 0 287 82t102 244q0 167-100 243t-326 76H309V725z"/><glyph unicode="S" glyph-name="S" horiz-adv-x="1116" d="M1014 377q0-183-134-290T522-20q-268 0-411 59v102q158-67 403-67 180 0 285 82t106 217q0 83-35 137T756 610t-232 97q-224 77-309 166t-86 239q0 164 128 267t331 104q206 0 387-78l-37-88q-182 76-348 76-162 0-258-75t-96-204q0-81 29-133t97-93 230-100q171-59 257-114t125-126 40-171z"/><glyph unicode="T" glyph-name="T" horiz-adv-x="1073" d="M588 0H485v1366H10v96h1053v-96H588V0z"/><glyph unicode="U" glyph-name="U" horiz-adv-x="1473" d="M1282 1462V516q0-252-146-394T729-20q-254 0-396 142T190 520v942h103V516q0-211 117-328T741 70q209 0 324 115t115 321v956h102z"/><glyph unicode="V" glyph-name="V" horiz-adv-x="1182" d="M1071 1462h111L635 0h-90L0 1462h109l368-995q84-225 113-338 20 75 79 233l402 1100z"/><glyph unicode="W" glyph-name="W" horiz-adv-x="1827" d="M1372 0h-84L967 1128q-40 139-60 228-16-87-45-200T539 0h-86L51 1462h107l256-942q15-57 28-105t23-91 19-82 16-80q24 136 102 413l250 887h113l293-1018q51-176 73-284 13 72 33 153t309 1149h103L1372 0z"/><glyph unicode="X" glyph-name="X" horiz-adv-x="1102" d="M1102 0H985L553 682 113 0H0l492 762-447 700h115l395-626 401 626h109L612 764 1102 0z"/><glyph unicode="Y" glyph-name="Y" horiz-adv-x="1081" d="M543 662l428 800h110L594 565V0H489v557L0 1462h117l426-800z"/><glyph unicode="Z" glyph-name="Z" horiz-adv-x="1180" d="M1098 0H82v76l856 1290H121v96h954v-76L217 96h881V0z"/><glyph unicode="[" glyph-name="bracketleft" horiz-adv-x="653" d="M602-324H174v1786h428v-94H272V-229h330v-95z"/><glyph unicode="\" glyph-name="backslash" horiz-adv-x="698" d="M127 1462L674 0H571L25 1462h102z"/><glyph unicode="]" glyph-name="bracketright" horiz-adv-x="653" d="M51-229h330v1597H51v94h428V-324H51v95z"/><glyph unicode="^" glyph-name="asciicircum" horiz-adv-x="1169" d="M88 561l465 912h68l460-912H981l-395 791-398-791H88z"/><glyph unicode="_" glyph-name="underscore" horiz-adv-x="842" d="M846-266H-4v82h850v-82z"/><glyph unicode="`" glyph-name="grave" horiz-adv-x="1182" d="M776 1241h-69q-96 79-188 171t-126 140v17h142q26-48 98-142t143-170v-16z"/><glyph unicode="a" glyph-name="a" horiz-adv-x="1085" d="M842 0l-25 172h-8Q727 67 641 24T436-20q-160 0-249 82T98 289q0 159 132 247t384 93l207 6v72q0 155-63 234t-203 79q-151 0-313-84l-37 86q179 84 354 84 179 0 267-93t89-290V0h-73zM442 70q174 0 274 99t101 277v107l-190-8q-229-11-326-71t-98-189q0-102 62-158t177-57z"/><glyph unicode="b" glyph-name="b" horiz-adv-x="1219" d="M641 1108q228 0 343-143t116-420q0-271-121-418T637-20q-116 0-209 48T281 164h-9L244 0h-62v1556h99v-391q0-88-4-162l-3-85h7q62 98 149 144t211 46zm-2-90q-192 0-275-110t-83-363v-17q0-246 86-353T637 68q178 0 268 124t90 355q0 471-356 471z"/><glyph unicode="c" glyph-name="c" horiz-adv-x="973" d="M616-20q-233 0-365 147T119 537q0 270 137 420t375 151q141 0 270-49l-27-88q-141 47-245 47-200 0-303-123T223 539q0-220 103-344T614 70q148 0 275 53V31Q785-20 616-20z"/><glyph unicode="d" glyph-name="d" horiz-adv-x="1219" d="M580 1108q118 0 204-43t154-147h6q-6 126-6 247v391h98V0h-65l-25 166h-8Q814-20 582-20q-225 0-344 140T119 528q0 282 118 431t343 149zm0-90q-178 0-267-125t-90-363q0-462 359-462 184 0 270 107t86 353v17q0 252-84 362t-274 111z"/><glyph unicode="e" glyph-name="e" horiz-adv-x="1124" d="M621-20q-237 0-369 146T119 535q0 260 128 416t345 157q192 0 303-134t111-364v-80H223q2-224 104-342T621 70q93 0 163 13t179 56V49Q871 9 793-5T621-20zm-29 1040q-157 0-252-103T229 618h672q0 189-82 295t-227 107z"/><glyph unicode="f" glyph-name="f" horiz-adv-x="614" d="M586 1001H330V0h-99v1001H29v58l202 37v84q0 200 73 293t241 94q90 0 180-27l-23-86q-80 25-159 25-116 0-164-68t-49-223v-101h256v-86z"/><glyph unicode="g" glyph-name="g" horiz-adv-x="1071" d="M1030 1087v-69l-225-14q90-112 90-246 0-157-104-254t-281-98q-74 0-104 6-59-31-90-73t-31-89q0-52 39-76t133-24h190q177 0 271-71t94-212q0-172-139-265t-398-94q-205 0-317 79T45-193Q45-81 114-7T303 94q-49 21-78 59t-30 89q0 109 139 192-95 39-148 122t-53 192q0 163 103 261t280 99q107 0 166-21h348zM150-184q0-224 333-224 428 0 428 273 0 98-67 142T627 51H449q-299 0-299-235zm83 932q0-126 76-195t205-70q136 0 208 69t73 200q0 139-74 208t-209 70q-130 0-204-74t-75-208z"/><glyph unicode="h" glyph-name="h" horiz-adv-x="1208" d="M940 0v705q0 164-69 238t-214 75q-195 0-285-98t-91-320V0h-99v1556h99v-495l-5-139h7q61 98 154 142t231 44q370 0 370-397V0h-98z"/><glyph unicode="i" glyph-name="i" horiz-adv-x="463" d="M281 0h-99v1087h99V0zM168 1389q0 96 63 96 31 0 48-25t18-71q0-45-17-71t-49-26q-63 0-63 97z"/><glyph unicode="j" glyph-name="j" horiz-adv-x="463" d="M37-492q-80 0-135 25v86q69-20 129-20 151 0 151 176v1312h99V-211q0-135-63-208T37-492zm131 1881q0 96 63 96 31 0 48-25t18-71q0-45-17-71t-49-26q-63 0-63 97z"/><glyph unicode="k" glyph-name="k" horiz-adv-x="991" d="M279 477l555 610h120L526 623 991 0H872L459 549 281 387V0h-99v1556h99V776l-7-299h5z"/><glyph unicode="l" glyph-name="l" horiz-adv-x="463" d="M281 0h-99v1556h99V0z"/><glyph unicode="m" glyph-name="m" horiz-adv-x="1808" d="M1540 0v713q0 159-62 232t-190 73q-167 0-247-92t-80-289V0H860v743q0 275-252 275-171 0-249-99t-78-319V0h-99v1087h82l21-149h6q45 81 128 125t183 45q257 0 330-193h4q53 93 142 143t204 50q178 0 267-95t89-302V0h-98z"/><glyph unicode="n" glyph-name="n" horiz-adv-x="1208" d="M940 0v705q0 164-69 238t-214 75q-195 0-285-98t-91-320V0h-99v1087h84l19-149h6q106 170 377 170 370 0 370-397V0h-98z"/><glyph unicode="o" glyph-name="o" horiz-adv-x="1200" d="M1081 545q0-266-129-415T596-20q-143 0-252 69T177 247t-58 298q0 266 129 414t354 149q224 0 351-150t128-413zm-858 0q0-224 98-349T600 70q180 0 278 125t99 350q0 225-99 349t-280 124q-180 0-277-123t-98-350z"/><glyph unicode="p" glyph-name="p" horiz-adv-x="1219" d="M647-20q-251 0-366 188h-7l3-84q4-74 4-162v-414h-99v1579h84l19-155h6q112 176 358 176 220 0 335-144t116-421q0-268-121-415T647-20zm-2 88q167 0 258 124t92 347q0 479-346 479-190 0-279-104t-89-341v-32q0-255 85-364T645 68z"/><glyph unicode="q" glyph-name="q" horiz-adv-x="1219" d="M569-20q-214 0-332 142T119 532q0 275 118 425t338 151q236 0 353-174h6l18 153h84V-492h-98v414q0 122 6 248h-6Q820-20 569-20zm2 88q198 0 282 109t85 366v12q0 245-85 354t-271 109q-176 0-267-124t-92-364q0-229 89-345T571 68z"/><glyph unicode="r" glyph-name="r" horiz-adv-x="797" d="M610 1108q69 0 148-14l-19-95q-68 17-141 17-139 0-228-118t-89-298V0h-99v1087h84l10-196h7q67 120 143 168t184 49z"/><glyph unicode="s" glyph-name="s" horiz-adv-x="954" d="M856 283q0-146-111-224T430-20Q212-20 84 47v107q164-82 346-82 161 0 244 53t84 143q0 82-66 138T473 516q-163 59-229 101t-99 96-34 131q0 122 102 193t287 71q176 0 334-66l-37-90q-160 66-297 66-133 0-211-44t-78-122q0-85 60-136t237-114q147-53 214-95t100-97 34-127z"/><glyph unicode="t" glyph-name="t" horiz-adv-x="686" d="M469 68q94 0 164 16V4q-72-24-166-24-144 0-212 77t-69 242v702H25v58l161 45 50 246h51v-263h319v-86H287V313q0-125 44-185t138-60z"/><glyph unicode="u" glyph-name="u" horiz-adv-x="1208" d="M268 1087V383q0-164 69-238t214-75q194 0 285 98t92 319v600h98V0h-84l-18 150h-6Q812-20 541-20q-371 0-371 397v710h98z"/><glyph unicode="v" glyph-name="v" horiz-adv-x="940" d="M420 0L0 1087h102l281-739q56-142 84-248h6q41 136 84 250l281 737h102L520 0H420z"/><glyph unicode="w" glyph-name="w" horiz-adv-x="1481" d="M1051 0L813 727q-23 74-59 217h-6l-21-74-45-145L440 0h-98L31 1087h106l174-630q61-234 80-344h6q59 234 86 311l224 663h90l213-661q72-235 88-311h6q8 65 80 348l166 624h100L1155 0h-104z"/><glyph unicode="x" glyph-name="x" horiz-adv-x="1020" d="M449 559L70 1087h114l324-458 321 458h109L565 559 965 0H850L508 485 164 0H55l394 559z"/><glyph unicode="y" glyph-name="y" horiz-adv-x="940" d="M0 1087h102l230-610Q437 196 465 98h6q42 129 137 385l230 604h102L453-176q-59-154-99-208t-93-81-130-27q-57 0-127 21v86q58-16 125-16 51 0 90 24t70 74 73 160T416 0L0 1087z"/><glyph unicode="z" glyph-name="z" horiz-adv-x="944" d="M858 0H82v63l645 936H129v88h727v-63L207 88h651V0z"/><glyph unicode="{" glyph-name="braceleft" horiz-adv-x="723" d="M389-27q0-102 59-152t203-54v-91q-195 0-277 75T291-18v337q0 205-230 209v80q122 2 176 51t54 148v350q0 299 360 305v-90q-138-5-200-58t-62-157V852q0-130-44-194t-142-85v-8q97-20 141-83t45-187V-27z"/><glyph unicode="|" glyph-name="bar" horiz-adv-x="1108" d="M508 1561h92V-506h-92v2067z"/><glyph unicode="}" glyph-name="braceright" horiz-adv-x="723" d="M334 295q0 123 44 186t142 84v8q-97 20-141 84t-45 195v305q0 103-61 156t-201 59v90q174 0 267-77t93-228V807q0-100 54-148t176-51v-80q-230-4-230-209V-18q0-155-82-230T72-324v91q141 2 201 52t61 154v322z"/><glyph unicode="~" glyph-name="asciitilde" horiz-adv-x="1169" d="M334 745q-49 0-108-30t-115-90v94q108 110 233 110 61 0 115-13t155-58q126-58 220-58 56 0 109 30t116 95v-96q-48-49-104-81t-130-32q-116 0-270 72-124 57-221 57z"/><glyph glyph-name="nbspace" horiz-adv-x="532"/><glyph unicode="¡" glyph-name="exclamdown" horiz-adv-x="492" d="M215 711h61l29-1086H186l29 1086zm-49 299q0 98 80 98 82 0 82-98 0-53-23-76t-59-23q-34 0-57 23t-23 76z"/><glyph unicode="¢" glyph-name="cent" horiz-adv-x="1169" d="M602 190q-186 30-288 175T211 745q0 232 102 381t289 183v174h82v-166h14q131 0 275-55l-31-84q-134 51-237 51-187 0-288-122T315 748q0-225 100-349t281-125q131 0 267 58v-92q-110-56-267-56h-12V-20h-82v210z"/><glyph unicode="£" glyph-name="sterling" horiz-adv-x="1169" d="M412 676V420q0-116-35-196T264 96h809V0H78v84q110 21 171 110t62 224v258H100v82h211v297q0 204 98 315t281 111q175 0 330-68l-35-86q-157 66-295 66-141 0-209-81t-69-253V758h411v-82H412z"/><glyph unicode="¤" glyph-name="currency" horiz-adv-x="1169" d="M991 723q0-151-90-256l139-141-59-60-137 142q-110-93-260-93-153 0-260 93L186 266l-59 60 139 141q-90 106-90 256 0 147 90 258l-139 141 59 60 138-142q103 93 260 93 155 0 260-93l137 142 59-60-139-141q90-111 90-258zM584 395q134 0 228 95t95 233q0 136-95 233t-228 97q-134 0-229-97t-95-233q0-136 94-232t230-96z"/><glyph unicode="¥" glyph-name="yen" horiz-adv-x="1169" d="M586 666l428 796h110L692 674h283v-82H637V387h338v-82H637V0H532v305H195v82h337v205H195v82h278L43 1462h117l426-796z"/><glyph unicode="¦" glyph-name="brokenbar" horiz-adv-x="1108" d="M508 1561h92V797h-92v764zm0-1303h92v-764h-92v764z"/><glyph unicode="§" glyph-name="section" horiz-adv-x="1057" d="M145 813q0 83 50 152t139 108q-86 47-125 102t-39 136q0 117 101 183t276 67q175 0 336-64l-35-80q-91 34-158 47t-145 13q-134 0-205-44t-72-120q0-54 25-88t86-66 188-74q192-64 264-132t72-171q0-173-186-274 86-42 129-96t43-136q0-135-113-207T465-4q-92 0-171 15T129 63v95q182-78 332-78 162 0 247 49t85 141q0 55-25 87t-88 66-191 79q-200 73-272 141t-72 170zm101 12q0-65 31-104t106-75 250-99q82 41 126 98t44 121q0 62-32 102t-108 77-237 87q-81-23-130-79t-50-128z"/><glyph unicode="¨" glyph-name="dieresis" horiz-adv-x="1182" d="M336 1389q0 46 15 66t48 20q64 0 64-86t-64-86q-63 0-63 86zm381 0q0 46 15 66t48 20q64 0 64-86t-64-86q-63 0-63 86z"/><glyph unicode="©" glyph-name="copyright" horiz-adv-x="1704" d="M897 1092q-142 0-222-94t-81-265q0-186 74-275t221-89q84 0 198 43v-88q-102-45-208-45-187 0-288 115T489 725q0 208 111 332t297 125q119 0 227-52l-37-83q-98 45-190 45zM100 731q0 200 100 375t275 276 377 101q200 0 375-100t276-275 101-377q0-197-97-370T1235 84 852-20Q645-20 470 83T198 360t-98 371zm93 0q0-178 88-329t241-241 330-89q178 0 329 88t241 241 89 330q0 174-85 325t-239 243-335 92q-176 0-328-88t-242-243-89-329z"/><glyph unicode="ª" glyph-name="ordfeminine" horiz-adv-x="686" d="M512 813l-25 72q-84-84-202-84-95 0-151 49T78 989q0 100 80 151t241 60l95 4v43q0 77-38 114t-106 38q-87 0-196-49l-33 73q117 56 231 56 228 0 228-215V813h-68zM168 993q0-54 35-85t96-31q90 0 142 50t53 142v64l-88-5q-116-6-177-36t-61-99z"/><glyph unicode="«" glyph-name="guillemotleft" horiz-adv-x="885" d="M82 543l309 393 62-43-254-363 254-362-62-43L82 516v27zm360 0l310 393 61-43-254-363 254-362-61-43-310 391v27z"/><glyph unicode="¬" glyph-name="logicalnot" horiz-adv-x="1169" d="M1038 764V270h-82v412H111v82h927z"/><glyph unicode="­" glyph-name="uni00AD" horiz-adv-x="659" d="M92 512v82h475v-82H92z"/><glyph unicode="®" glyph-name="registered" horiz-adv-x="1704" d="M709 731h112q91 0 143 46t52 136q0 172-197 172H709V731zm411 187q0-79-38-139t-111-95l237-393h-121L877 651H709V291H608v880h211q143 0 222-62t79-191zM100 731q0 200 100 375t275 276 377 101q200 0 375-100t276-275 101-377q0-197-97-370T1235 84 852-20Q645-20 470 83T198 360t-98 371zm93 0q0-178 88-329t241-241 330-89q178 0 329 88t241 241 89 330q0 174-85 325t-239 243-335 92q-176 0-328-88t-242-243-89-329z"/><glyph unicode="¯" glyph-name="overscore" horiz-adv-x="1024" d="M1030 1556H-6v82h1036v-82z"/><glyph unicode="°" glyph-name="degree" horiz-adv-x="877" d="M139 1184q0 132 86 215t213 84q126 0 212-83t87-216q0-132-86-215t-213-84q-130 0-214 83t-85 216zm90 0q0-91 61-154t148-63q86 0 147 62t62 155q0 92-60 154t-149 63q-90 0-149-64t-60-153z"/><glyph unicode="±" glyph-name="plusminus" horiz-adv-x="1169" d="M111 1v82h948V1H111zm514 763h434v-82H625V250h-82v432H111v82h432v434h82V764z"/><glyph unicode="²" glyph-name="twosuperior" horiz-adv-x="688" d="M629 586H53v78l242 237q125 121 172 193t47 149q0 71-46 112t-124 42q-108 0-217-82l-49 65q119 103 270 103 124 0 194-63t70-175q0-47-13-89t-40-85-68-90-309-307h447v-88z"/><glyph unicode="³" glyph-name="threesuperior" horiz-adv-x="688" d="M616 1260q0-78-44-131t-117-76q186-45 186-211 0-130-88-201t-248-72q-144 0-264 60v88q136-62 266-62 115 0 174 49t60 136q0 83-59 122t-179 39H172v84h135q105 0 158 43t53 121q0 67-47 107t-127 41q-128 0-246-78l-47 70q130 94 293 94 127 0 199-60t73-163z"/><glyph unicode="´" glyph-name="acute" horiz-adv-x="1182" d="M393 1257q73 79 144 171t98 141h141v-17q-36-52-122-138t-191-173h-70v16z"/><glyph unicode="µ" glyph-name="mu" horiz-adv-x="1221" d="M281 1087V383q0-164 69-238t213-75q194 0 285 98t92 319v600h98V0h-84l-18 150h-6Q880 73 780 27T563-20q-99 0-167 27T276 92q5-92 5-170v-414h-99v1579h99z"/><glyph unicode="¶" glyph-name="paragraph" horiz-adv-x="1341" d="M1106-260h-100v1722H778V-260H678v819q-64-18-146-18-216 0-317 125t-102 376q0 260 109 387t341 127h543V-260z"/><glyph unicode="·" glyph-name="middot" horiz-adv-x="487" d="M162 721q0 98 80 98 82 0 82-98t-82-98q-80 0-80 98z"/><glyph unicode="¸" glyph-name="cedilla" horiz-adv-x="420" d="M393-291q0-100-67-150t-189-51q-68 0-94 11v88q30-10 92-10 78 0 119 28t41 80q0 94-193 121L195 0h96l-66-117q168-37 168-174z"/><glyph unicode="¹" glyph-name="onesuperior" horiz-adv-x="688" d="M350 1462h92V586h-98v547q0 99 12 233-26-23-233-145l-47 77 274 164z"/><glyph unicode="º" glyph-name="ordmasculine" horiz-adv-x="739" d="M670 1141q0-161-80-250t-223-90q-143 0-220 86t-77 254q0 162 78 250t223 88q142 0 220-87t79-251zm-510 0q0-264 209-264t209 264q0 131-50 194t-159 64q-109 0-159-63t-50-195z"/><glyph unicode="»" glyph-name="guillemotright" horiz-adv-x="885" d="M803 518L494 125l-62 43 254 362-254 363 62 43 309-391v-27zm-361 0L133 125l-61 43 254 362L72 893l61 43 309-391v-27z"/><glyph unicode="¼" glyph-name="onequarter" horiz-adv-x="1516" d="M589 1462h92V586h-98v547q0 99 12 233-26-23-233-145l-47 77 274 164zm559 0L337 0h-94l811 1462h94zm244-1220h-129V1h-90v241H760v60l407 581h96V320h129v-78zm-219 78v221q0 132 8 232-6-12-21-35T864 320h309z"/><glyph unicode="½" glyph-name="onehalf" horiz-adv-x="1516" d="M541 1462h92V586h-98v547q0 99 12 233-26-23-233-145l-47 77 274 164zm532 0L262 0h-94l811 1462h94zM1403 1H827v78l242 237q125 121 172 193t47 149q0 71-46 112t-124 42q-108 0-217-82l-49 65q119 103 270 103 124 0 194-63t70-175q0-47-13-89t-40-85-68-90T956 89h447V1z"/><glyph unicode="¾" glyph-name="threequarters" horiz-adv-x="1516" d="M616 1260q0-78-44-131t-117-76q186-45 186-211 0-130-88-201t-248-72q-144 0-264 60v88q136-62 266-62 115 0 174 49t60 136q0 83-59 122t-179 39H172v84h135q105 0 158 43t53 121q0 67-47 107t-127 41q-128 0-246-78l-47 70q130 94 293 94 127 0 199-60t73-163zm684 202L489 0h-94l811 1462h94zm195-1220h-129V1h-90v241H863v60l407 581h96V320h129v-78zm-219 78v221q0 132 8 232-6-12-21-35T967 320h309z"/><glyph unicode="¿" glyph-name="questiondown" horiz-adv-x="862" d="M569 711v-37q0-125-39-204T393 305l-90-79q-73-61-104-120T168-33q0-124 82-200t221-76q125 0 233 46l64 27 37-79q-111-48-185-64t-153-16q-184 0-288 99T74-27q0 70 20 124t58 102 172 159q64 53 98 98t50 94 15 146v15h82zm-129 299q0 98 80 98 82 0 82-98 0-53-23-76t-59-23q-34 0-57 23t-23 76z"/><glyph unicode="À" glyph-name="Agrave" horiz-adv-x="1229" d="M911 516H317L113 0H0l588 1468h65L1229 0h-115L911 516zm-557 92h523l-199 527q-25 62-60 172-27-96-59-174L354 608zm366 971h-69q-96 79-188 171t-126 140v17h142q26-48 98-142t143-170v-16z"/><glyph unicode="Á" glyph-name="Aacute" horiz-adv-x="1229" d="M911 516H317L113 0H0l588 1468h65L1229 0h-115L911 516zm-557 92h523l-199 527q-25 62-60 172-27-96-59-174L354 608zm150 987q73 79 144 171t98 141h141v-17q-36-52-122-138t-191-173h-70v16z"/><glyph unicode="Â" glyph-name="Acircumflex" horiz-adv-x="1229" d="M911 516H317L113 0H0l588 1468h65L1229 0h-115L911 516zm-557 92h523l-199 527q-25 62-60 172-27-96-59-174L354 608zm-26 987q62 67 131 156t111 156h98q68-120 242-312v-16h-70q-122 101-221 207-108-114-221-207h-70v16z"/><glyph unicode="Ã" glyph-name="Atilde" horiz-adv-x="1229" d="M911 516H317L113 0H0l588 1468h65L1229 0h-115L911 516zm-557 92h523l-199 527q-25 62-60 172-27-96-59-174L354 608zm430 973q-36 0-75 18t-101 72q-32 26-62 46t-63 20q-45 0-75-34t-48-122h-73q10 111 63 174t137 64q48 0 88-25t82-59q34-28 66-50t61-22q46 0 77 36t48 120h76q-16-116-69-177t-132-61z"/><glyph unicode="Ä" glyph-name="Adieresis" horiz-adv-x="1229" d="M911 516H317L113 0H0l588 1468h65L1229 0h-115L911 516zm-557 92h523l-199 527q-25 62-60 172-27-96-59-174L354 608zm13 1119q0 46 15 66t48 20q64 0 64-86t-64-86q-63 0-63 86zm381 0q0 46 15 66t48 20q64 0 64-86t-64-86q-63 0-63 86z"/><glyph unicode="Å" glyph-name="Aring" horiz-adv-x="1229" d="M911 516H317L113 0H0l588 1468h65L1229 0h-115L911 516zm-557 92h523l-199 527q-25 62-60 172-27-96-59-174L354 608zm482 1002q0-97-60-155t-157-58q-97 0-157 58t-60 155q0 94 60 152t157 59q97 0 157-59t60-152zm-354 0q0-66 37-103t100-38q62 0 99 37t38 104q0 64-39 101t-98 38q-62 0-99-38t-38-101z"/><glyph unicode="Æ" glyph-name="AE" horiz-adv-x="1653" d="M1528 0H811v516H336L109 0H-2l653 1462h877v-94H913V815h576v-94H913V94h615V0zM377 608h434v760H711L377 608z"/><glyph unicode="Ç" glyph-name="Ccedilla" horiz-adv-x="1272" d="M831 1391q-275 0-433-176T240 733q0-313 149-486T815 74q184 0 338 47V31q-145-51-362-51-308 0-485 199T129 735q0 223 84 393t243 262 369 93q214 0 383-80l-41-92q-160 80-336 80zm80-1682q0-100-67-150t-189-51q-68 0-94 11v88q30-10 92-10 78 0 119 28t41 80q0 94-193 121L713 0h96l-66-117q168-37 168-174z"/><glyph unicode="È" glyph-name="Egrave" horiz-adv-x="1130" d="M1006 0H207v1462h799v-94H309V815h658v-94H309V94h697V0zM697 1579h-69q-96 79-188 171t-126 140v17h142q26-48 98-142t143-170v-16z"/><glyph unicode="É" glyph-name="Eacute" horiz-adv-x="1130" d="M1006 0H207v1462h799v-94H309V815h658v-94H309V94h697V0zM463 1595q73 79 144 171t98 141h141v-17q-36-52-122-138t-191-173h-70v16z"/><glyph unicode="Ê" glyph-name="Ecircumflex" horiz-adv-x="1130" d="M1006 0H207v1462h799v-94H309V815h658v-94H309V94h697V0zM315 1595q62 67 131 156t111 156h98q68-120 242-312v-16h-70q-122 101-221 207-108-114-221-207h-70v16z"/><glyph unicode="Ë" glyph-name="Edieresis" horiz-adv-x="1130" d="M1006 0H207v1462h799v-94H309V815h658v-94H309V94h697V0zM354 1727q0 46 15 66t48 20q64 0 64-86t-64-86q-63 0-63 86zm381 0q0 46 15 66t48 20q64 0 64-86t-64-86q-63 0-63 86z"/><glyph unicode="Ì" glyph-name="Igrave" horiz-adv-x="516" d="M207 0v1462h102V0H207zm113 1579h-69q-96 79-188 171t-126 140v17H79q26-48 98-142t143-170v-16z"/><glyph unicode="Í" glyph-name="Iacute" horiz-adv-x="516" d="M207 0v1462h102V0H207zm-16 1595q73 79 144 171t98 141h141v-17q-36-52-122-138t-191-173h-70v16z"/><glyph unicode="Î" glyph-name="Icircumflex" horiz-adv-x="516" d="M207 0v1462h102V0H207zM-32 1595q62 67 131 156t111 156h98q68-120 242-312v-16h-70q-122 101-221 207-108-114-221-207h-70v16z"/><glyph unicode="Ï" glyph-name="Idieresis" horiz-adv-x="516" d="M207 0v1462h102V0H207zM5 1727q0 46 15 66t48 20q64 0 64-86t-64-86q-63 0-63 86zm381 0q0 46 15 66t48 20q64 0 64-86t-64-86q-63 0-63 86z"/><glyph unicode="Ð" glyph-name="Eth" horiz-adv-x="1466" d="M1317 745q0-368-193-556T557 0H207v678H47v94h160v690h395q350 0 532-183t183-534zm-111-4q0 314-159 472t-469 159H309V772h406v-94H309V90h242q655 0 655 651z"/><glyph unicode="Ñ" glyph-name="Ntilde" horiz-adv-x="1477" d="M1270 0h-103L301 1298h-8q12-232 12-350V0h-98v1462h102l865-1296h6q-9 180-9 342v954h99V0zM897 1581q-36 0-75 18t-101 72q-32 26-62 46t-63 20q-45 0-75-34t-48-122h-73q10 111 63 174t137 64q48 0 88-25t82-59q34-28 66-50t61-22q46 0 77 36t48 120h76q-16-116-69-177t-132-61z"/><glyph unicode="Ò" glyph-name="Ograve" horiz-adv-x="1565" d="M1436 733q0-348-174-550T782-20q-305 0-479 202T129 735q0 349 175 549t480 201q306 0 479-201t173-551zm-1196 0q0-314 140-485T782 76q264 0 403 170t140 487q0 316-139 484t-402 169q-261 0-402-170T240 733zm645 846h-69q-96 79-188 171t-126 140v17h142q26-48 98-142t143-170v-16z"/><glyph unicode="Ó" glyph-name="Oacute" horiz-adv-x="1565" d="M1436 733q0-348-174-550T782-20q-305 0-479 202T129 735q0 349 175 549t480 201q306 0 479-201t173-551zm-1196 0q0-314 140-485T782 76q264 0 403 170t140 487q0 316-139 484t-402 169q-261 0-402-170T240 733zm446 862q73 79 144 171t98 141h141v-17q-36-52-122-138t-191-173h-70v16z"/><glyph unicode="Ô" glyph-name="Ocircumflex" horiz-adv-x="1565" d="M1436 733q0-348-174-550T782-20q-305 0-479 202T129 735q0 349 175 549t480 201q306 0 479-201t173-551zm-1196 0q0-314 140-485T782 76q264 0 403 170t140 487q0 316-139 484t-402 169q-261 0-402-170T240 733zm252 862q62 67 131 156t111 156h98q68-120 242-312v-16h-70q-122 101-221 207-108-114-221-207h-70v16z"/><glyph unicode="Õ" glyph-name="Otilde" horiz-adv-x="1565" d="M1436 733q0-348-174-550T782-20q-305 0-479 202T129 735q0 349 175 549t480 201q306 0 479-201t173-551zm-1196 0q0-314 140-485T782 76q264 0 403 170t140 487q0 316-139 484t-402 169q-261 0-402-170T240 733zm700 848q-36 0-75 18t-101 72q-32 26-62 46t-63 20q-45 0-75-34t-48-122h-73q10 111 63 174t137 64q48 0 88-25t82-59q34-28 66-50t61-22q46 0 77 36t48 120h76q-16-116-69-177t-132-61z"/><glyph unicode="Ö" glyph-name="Odieresis" horiz-adv-x="1565" d="M1436 733q0-348-174-550T782-20q-305 0-479 202T129 735q0 349 175 549t480 201q306 0 479-201t173-551zm-1196 0q0-314 140-485T782 76q264 0 403 170t140 487q0 316-139 484t-402 169q-261 0-402-170T240 733zm289 994q0 46 15 66t48 20q64 0 64-86t-64-86q-63 0-63 86zm381 0q0 46 15 66t48 20q64 0 64-86t-64-86q-63 0-63 86z"/><glyph unicode="×" glyph-name="multiply" horiz-adv-x="1169" d="M584 780l409 408 58-58-408-407 406-408-58-57-407 408-406-408-57 57 405 408-407 407 57 58 408-408z"/><glyph unicode="Ø" glyph-name="Oslash" horiz-adv-x="1565" d="M1436 733q0-348-174-550T782-20q-236 0-395 120L301-20l-74 59 90 127Q129 366 129 735q0 349 175 549t480 201q232 0 392-121l108 152 72-60-111-153q191-207 191-570zm-111 0q0 315-139 486L444 182Q577 76 782 76q264 0 403 170t140 487zm-1085 0q0-312 139-483l739 1034q-133 102-334 102-261 0-402-170T240 733z"/><glyph unicode="Ù" glyph-name="Ugrave" horiz-adv-x="1473" d="M1282 1462V516q0-252-146-394T729-20q-254 0-396 142T190 520v942h103V516q0-211 117-328T741 70q209 0 324 115t115 321v956h102zm-449 117h-69q-96 79-188 171t-126 140v17h142q26-48 98-142t143-170v-16z"/><glyph unicode="Ú" glyph-name="Uacute" horiz-adv-x="1473" d="M1282 1462V516q0-252-146-394T729-20q-254 0-396 142T190 520v942h103V516q0-211 117-328T741 70q209 0 324 115t115 321v956h102zm-649 133q73 79 144 171t98 141h141v-17q-36-52-122-138t-191-173h-70v16z"/><glyph unicode="Û" glyph-name="Ucircumflex" horiz-adv-x="1473" d="M1282 1462V516q0-252-146-394T729-20q-254 0-396 142T190 520v942h103V516q0-211 117-328T741 70q209 0 324 115t115 321v956h102zm-838 133q62 67 131 156t111 156h98q68-120 242-312v-16h-70q-122 101-221 207-108-114-221-207h-70v16z"/><glyph unicode="Ü" glyph-name="Udieresis" horiz-adv-x="1473" d="M1282 1462V516q0-252-146-394T729-20q-254 0-396 142T190 520v942h103V516q0-211 117-328T741 70q209 0 324 115t115 321v956h102zm-801 265q0 46 15 66t48 20q64 0 64-86t-64-86q-63 0-63 86zm381 0q0 46 15 66t48 20q64 0 64-86t-64-86q-63 0-63 86z"/><glyph unicode="Ý" glyph-name="Yacute" horiz-adv-x="1081" d="M543 662l428 800h110L594 565V0H489v557L0 1462h117l426-800zm-109 933q73 79 144 171t98 141h141v-17q-36-52-122-138t-191-173h-70v16z"/><glyph unicode="Þ" glyph-name="Thorn" horiz-adv-x="1198" d="M1087 778q0-212-144-325T535 340H309V0H207v1462h102v-264h256q522 0 522-420zM309 428h201q247 0 357 81t110 265q0 169-104 250t-322 82H309V428z"/><glyph unicode="ß" glyph-name="germandbls" horiz-adv-x="1194" d="M961 1284q0-139-139-250-81-64-110-100t-30-76q0-44 14-68t52-57 102-78q106-75 151-124t68-103 23-121q0-156-88-241T758-20q-95 0-174 18T457 47v107q65-38 148-62t153-24q114 0 174 54t61 161q0 83-39 144T805 563q-127 87-175 147t-48 146q0 60 32 110t107 108q74 57 106 105t33 107q0 93-70 143t-202 50q-145 0-226-69t-81-196V0h-99v1206q0 173 103 267t293 94q188 0 285-72t98-211z"/><glyph unicode="à" glyph-name="agrave" horiz-adv-x="1085" d="M842 0l-25 172h-8Q727 67 641 24T436-20q-160 0-249 82T98 289q0 159 132 247t384 93l207 6v72q0 155-63 234t-203 79q-151 0-313-84l-37 86q179 84 354 84 179 0 267-93t89-290V0h-73zM442 70q174 0 274 99t101 277v107l-190-8q-229-11-326-71t-98-189q0-102 62-158t177-57zm196 1171h-69q-96 79-188 171t-126 140v17h142q26-48 98-142t143-170v-16z"/><glyph unicode="á" glyph-name="aacute" horiz-adv-x="1085" d="M842 0l-25 172h-8Q727 67 641 24T436-20q-160 0-249 82T98 289q0 159 132 247t384 93l207 6v72q0 155-63 234t-203 79q-151 0-313-84l-37 86q179 84 354 84 179 0 267-93t89-290V0h-73zM442 70q174 0 274 99t101 277v107l-190-8q-229-11-326-71t-98-189q0-102 62-158t177-57zm-20 1187q73 79 144 171t98 141h141v-17q-36-52-122-138t-191-173h-70v16z"/><glyph unicode="â" glyph-name="acircumflex" horiz-adv-x="1085" d="M842 0l-25 172h-8Q727 67 641 24T436-20q-160 0-249 82T98 289q0 159 132 247t384 93l207 6v72q0 155-63 234t-203 79q-151 0-313-84l-37 86q179 84 354 84 179 0 267-93t89-290V0h-73zM442 70q174 0 274 99t101 277v107l-190-8q-229-11-326-71t-98-189q0-102 62-158t177-57zm65 1187q62 67 131 156t111 156h98q68-120 242-312v-16h-70q-122 101-221 207-108-114-221-207h-70v16z"/><glyph unicode="ã" glyph-name="atilde" horiz-adv-x="1085" d="M842 0l-25 172h-8Q727 67 641 24T436-20q-160 0-249 82T98 289q0 159 132 247t384 93l207 6v72q0 155-63 234t-203 79q-151 0-313-84l-37 86q179 84 354 84 179 0 267-93t89-290V0h-73zM442 70q174 0 274 99t101 277v107l-190-8q-229-11-326-71t-98-189q0-102 62-158t177-57zm511 1173q-36 0-75 18t-101 72q-32 26-62 46t-63 20q-45 0-75-34t-48-122h-73q10 111 63 174t137 64q48 0 88-25t82-59q34-28 66-50t61-22q46 0 77 36t48 120h76q-16-116-69-177t-132-61z"/><glyph unicode="ä" glyph-name="adieresis" horiz-adv-x="1085" d="M842 0l-25 172h-8Q727 67 641 24T436-20q-160 0-249 82T98 289q0 159 132 247t384 93l207 6v72q0 155-63 234t-203 79q-151 0-313-84l-37 86q179 84 354 84 179 0 267-93t89-290V0h-73zM442 70q174 0 274 99t101 277v107l-190-8q-229-11-326-71t-98-189q0-102 62-158t177-57zm96 1319q0 46 15 66t48 20q64 0 64-86t-64-86q-63 0-63 86zm381 0q0 46 15 66t48 20q64 0 64-86t-64-86q-63 0-63 86z"/><glyph unicode="å" glyph-name="aring" horiz-adv-x="1085" d="M842 0l-25 172h-8Q727 67 641 24T436-20q-160 0-249 82T98 289q0 159 132 247t384 93l207 6v72q0 155-63 234t-203 79q-151 0-313-84l-37 86q179 84 354 84 179 0 267-93t89-290V0h-73zM442 70q174 0 274 99t101 277v107l-190-8q-229-11-326-71t-98-189q0-102 62-158t177-57zm573 1386q0-97-60-155t-157-58q-97 0-157 58t-60 155q0 94 60 152t157 59q97 0 157-59t60-152zm-354 0q0-66 37-103t100-38q62 0 99 37t38 104q0 64-39 101t-98 38q-62 0-99-38t-38-101z"/><glyph unicode="æ" glyph-name="ae" horiz-adv-x="1731" d="M1243-20q-295 0-397 256-68-133-168-194T426-20q-156 0-242 82T98 289q0 154 125 243t377 97l201 6v72q0 155-61 234t-199 79q-148 0-305-84l-37 86q173 84 346 84 261 0 325-211 111 213 347 213 184 0 289-134t106-364v-80H897q0-460 348-460 85 0 150 12t174 57V49q-92-41-165-55t-161-14zM434 70q169 0 266 99t97 277v107l-187-8q-219-11-313-71t-94-189q0-102 61-158t170-57zm783 950q-284 0-314-402h604q0 188-77 295t-213 107z"/><glyph unicode="ç" glyph-name="ccedilla" horiz-adv-x="973" d="M616-20q-233 0-365 147T119 537q0 270 137 420t375 151q141 0 270-49l-27-88q-141 47-245 47-200 0-303-123T223 539q0-220 103-344T614 70q148 0 275 53V31Q785-20 616-20zm107-271q0-100-67-150t-189-51q-68 0-94 11v88q30-10 92-10 78 0 119 28t41 80q0 94-193 121L525 0h96l-66-117q168-37 168-174z"/><glyph unicode="è" glyph-name="egrave" horiz-adv-x="1124" d="M621-20q-237 0-369 146T119 535q0 260 128 416t345 157q192 0 303-134t111-364v-80H223q2-224 104-342T621 70q93 0 163 13t179 56V49Q871 9 793-5T621-20zm-29 1040q-157 0-252-103T229 618h672q0 189-82 295t-227 107zm349 221h-69q-96 79-188 171t-126 140v17h142q26-48 98-142t143-170v-16z"/><glyph unicode="é" glyph-name="eacute" horiz-adv-x="1124" d="M621-20q-237 0-369 146T119 535q0 260 128 416t345 157q192 0 303-134t111-364v-80H223q2-224 104-342T621 70q93 0 163 13t179 56V49Q871 9 793-5T621-20zm-29 1040q-157 0-252-103T229 618h672q0 189-82 295t-227 107zm-140 237q73 79 144 171t98 141h141v-17q-36-52-122-138t-191-173h-70v16z"/><glyph unicode="ê" glyph-name="ecircumflex" horiz-adv-x="1124" d="M621-20q-237 0-369 146T119 535q0 260 128 416t345 157q192 0 303-134t111-364v-80H223q2-224 104-342T621 70q93 0 163 13t179 56V49Q871 9 793-5T621-20zm-29 1040q-157 0-252-103T229 618h672q0 189-82 295t-227 107zm-46 237q62 67 131 156t111 156h98q68-120 242-312v-16h-70q-122 101-221 207-108-114-221-207h-70v16z"/><glyph unicode="ë" glyph-name="edieresis" horiz-adv-x="1124" d="M621-20q-237 0-369 146T119 535q0 260 128 416t345 157q192 0 303-134t111-364v-80H223q2-224 104-342T621 70q93 0 163 13t179 56V49Q871 9 793-5T621-20zm-29 1040q-157 0-252-103T229 618h672q0 189-82 295t-227 107zm-5 369q0 46 15 66t48 20q64 0 64-86t-64-86q-63 0-63 86zm381 0q0 46 15 66t48 20q64 0 64-86t-64-86q-63 0-63 86z"/><glyph unicode="ì" glyph-name="igrave" horiz-adv-x="463" d="M281 0h-99v1087h99V0zm68 1241h-69q-96 79-188 171t-126 140v17h142q26-48 98-142t143-170v-16z"/><glyph unicode="í" glyph-name="iacute" horiz-adv-x="463" d="M281 0h-99v1087h99V0zM107 1257q73 79 144 171t98 141h141v-17q-36-52-122-138t-191-173h-70v16z"/><glyph unicode="î" glyph-name="icircumflex" horiz-adv-x="463" d="M281 0h-99v1087h99V0zM-58 1257q62 67 131 156t111 156h98q68-120 242-312v-16h-70q-122 101-221 207-108-114-221-207h-70v16z"/><glyph unicode="ï" glyph-name="idieresis" horiz-adv-x="463" d="M281 0h-99v1087h99V0zM-21 1389q0 46 15 66t48 20q64 0 64-86t-64-86q-63 0-63 86zm381 0q0 46 15 66t48 20q64 0 64-86t-64-86q-63 0-63 86z"/><glyph unicode="ð" glyph-name="eth" horiz-adv-x="1174" d="M1055 559q0-276-124-427T582-20q-214 0-339 130T117 471q0 228 126 357t343 130q108 0 187-33t149-96l4 2q-64 270-269 459l-270-157-49 77 244 146q-86 62-199 119l45 81q147-69 248-145l225 137 49-84-202-121q154-151 230-353t77-431zm-105-2q0 146-97 228t-267 83q-185 0-275-100t-90-305q0-186 94-289T584 70q179 0 272 123t94 364z"/><glyph unicode="ñ" glyph-name="ntilde" horiz-adv-x="1208" d="M940 0v705q0 164-69 238t-214 75q-195 0-285-98t-91-320V0h-99v1087h84l19-149h6q106 170 377 170 370 0 370-397V0h-98zm95 1243q-36 0-75 18t-101 72q-32 26-62 46t-63 20q-45 0-75-34t-48-122h-73q10 111 63 174t137 64q48 0 88-25t82-59q34-28 66-50t61-22q46 0 77 36t48 120h76q-16-116-69-177t-132-61z"/><glyph unicode="ò" glyph-name="ograve" horiz-adv-x="1200" d="M1081 545q0-266-129-415T596-20q-143 0-252 69T177 247t-58 298q0 266 129 414t354 149q224 0 351-150t128-413zm-858 0q0-224 98-349T600 70q180 0 278 125t99 350q0 225-99 349t-280 124q-180 0-277-123t-98-350zm751 696h-69q-96 79-188 171t-126 140v17h142q26-48 98-142t143-170v-16z"/><glyph unicode="ó" glyph-name="oacute" horiz-adv-x="1200" d="M1081 545q0-266-129-415T596-20q-143 0-252 69T177 247t-58 298q0 266 129 414t354 149q224 0 351-150t128-413zm-858 0q0-224 98-349T600 70q180 0 278 125t99 350q0 225-99 349t-280 124q-180 0-277-123t-98-350zm276 712q73 79 144 171t98 141h141v-17q-36-52-122-138t-191-173h-70v16z"/><glyph unicode="ô" glyph-name="ocircumflex" horiz-adv-x="1200" d="M1081 545q0-266-129-415T596-20q-143 0-252 69T177 247t-58 298q0 266 129 414t354 149q224 0 351-150t128-413zm-858 0q0-224 98-349T600 70q180 0 278 125t99 350q0 225-99 349t-280 124q-180 0-277-123t-98-350zm86 712q62 67 131 156t111 156h98q68-120 242-312v-16h-70q-122 101-221 207-108-114-221-207h-70v16z"/><glyph unicode="õ" glyph-name="otilde" horiz-adv-x="1200" d="M1081 545q0-266-129-415T596-20q-143 0-252 69T177 247t-58 298q0 266 129 414t354 149q224 0 351-150t128-413zm-858 0q0-224 98-349T600 70q180 0 278 125t99 350q0 225-99 349t-280 124q-180 0-277-123t-98-350zm794 698q-36 0-75 18t-101 72q-32 26-62 46t-63 20q-45 0-75-34t-48-122h-73q10 111 63 174t137 64q48 0 88-25t82-59q34-28 66-50t61-22q46 0 77 36t48 120h76q-16-116-69-177t-132-61z"/><glyph unicode="ö" glyph-name="odieresis" horiz-adv-x="1200" d="M1081 545q0-266-129-415T596-20q-143 0-252 69T177 247t-58 298q0 266 129 414t354 149q224 0 351-150t128-413zm-858 0q0-224 98-349T600 70q180 0 278 125t99 350q0 225-99 349t-280 124q-180 0-277-123t-98-350zm123 844q0 46 15 66t48 20q64 0 64-86t-64-86q-63 0-63 86zm381 0q0 46 15 66t48 20q64 0 64-86t-64-86q-63 0-63 86z"/><glyph unicode="÷" glyph-name="divide" horiz-adv-x="1169" d="M111 682v82h948v-82H111zm393 393q0 99 80 99 82 0 82-99 0-52-23-75t-59-23q-34 0-57 23t-23 75zm0-704q0 98 80 98 82 0 82-98 0-53-23-76t-59-23q-34 0-57 23t-23 76z"/><glyph unicode="ø" glyph-name="oslash" horiz-adv-x="1200" d="M1081 545q0-266-129-415T596-20q-173 0-291 98L219-35l-72 58 93 120Q119 296 119 545q0 266 129 414t354 149q179 0 301-104l96 124 74-55-104-137q112-147 112-391zm-858 0q0-200 78-322l543 705q-98 90-246 90-180 0-277-123t-98-350zm754 0q0 190-72 309L362 152q94-82 238-82 180 0 278 125t99 350z"/><glyph unicode="ù" glyph-name="ugrave" horiz-adv-x="1208" d="M268 1087V383q0-164 69-238t214-75q194 0 285 98t92 319v600h98V0h-84l-18 150h-6Q812-20 541-20q-371 0-371 397v710h98zm675 154h-69q-96 79-188 171t-126 140v17h142q26-48 98-142t143-170v-16z"/><glyph unicode="ú" glyph-name="uacute" horiz-adv-x="1208" d="M268 1087V383q0-164 69-238t214-75q194 0 285 98t92 319v600h98V0h-84l-18 150h-6Q812-20 541-20q-371 0-371 397v710h98zm227 170q73 79 144 171t98 141h141v-17q-36-52-122-138t-191-173h-70v16z"/><glyph unicode="û" glyph-name="ucircumflex" horiz-adv-x="1208" d="M268 1087V383q0-164 69-238t214-75q194 0 285 98t92 319v600h98V0h-84l-18 150h-6Q812-20 541-20q-371 0-371 397v710h98zm45 170q62 67 131 156t111 156h98q68-120 242-312v-16h-70q-122 101-221 207-108-114-221-207h-70v16z"/><glyph unicode="ü" glyph-name="udieresis" horiz-adv-x="1208" d="M268 1087V383q0-164 69-238t214-75q194 0 285 98t92 319v600h98V0h-84l-18 150h-6Q812-20 541-20q-371 0-371 397v710h98zm82 302q0 46 15 66t48 20q64 0 64-86t-64-86q-63 0-63 86zm381 0q0 46 15 66t48 20q64 0 64-86t-64-86q-63 0-63 86z"/><glyph unicode="ý" glyph-name="yacute" horiz-adv-x="940" d="M0 1087h102l230-610Q437 196 465 98h6q42 129 137 385l230 604h102L453-176q-59-154-99-208t-93-81-130-27q-57 0-127 21v86q58-16 125-16 51 0 90 24t70 74 73 160T416 0L0 1087zm617 170q73 79 144 171t98 141h141v-17q-36-52-122-138t-191-173h-70v16z"/><glyph unicode="þ" glyph-name="thorn" horiz-adv-x="1219" d="M281 918q114 190 368 190 220 0 335-144t116-421q0-268-121-415T647-20q-251 0-366 188h-7l3-84q4-74 4-162v-414h-99v2048h99v-391l-7-247h7zM645 68q167 0 258 124t92 347q0 479-348 479-193 0-279-105t-87-354v-18q0-255 85-364T645 68z"/><glyph unicode="ÿ" glyph-name="ydieresis" horiz-adv-x="940" d="M0 1087h102l230-610Q437 196 465 98h6q42 129 137 385l230 604h102L453-176q-59-154-99-208t-93-81-130-27q-57 0-127 21v86q58-16 125-16 51 0 90 24t70 74 73 160T416 0L0 1087zm470 302q0 46 15 66t48 20q64 0 64-86t-64-86q-63 0-63 86zm381 0q0 46 15 66t48 20q64 0 64-86t-64-86q-63 0-63 86z"/><glyph unicode="–" glyph-name="endash" horiz-adv-x="1024" d="M82 512v82h860v-82H82z"/><glyph unicode="—" glyph-name="emdash" horiz-adv-x="2048" d="M82 512v82h1884v-82H82z"/><glyph unicode="‘" glyph-name="quoteleft" horiz-adv-x="297" d="M41 961l-12 20q32 112 81 251t93 230h65q-30-101-64-257t-46-244H41z"/><glyph unicode="’" glyph-name="quoteright" horiz-adv-x="297" d="M256 1462l12-20q-75-265-174-481H29q29 96 61 241t49 260h117z"/><glyph unicode="‚" glyph-name="quotesinglbase" horiz-adv-x="451" d="M295 238l12-20Q232-47 133-263H68q29 96 61 241t49 260h117z"/><glyph unicode="“" glyph-name="quotedblleft" horiz-adv-x="614" d="M358 961l-12 20q34 120 83 255t91 226h66q-30-98-63-248t-48-253H358zm-317 0l-12 20q32 112 81 251t93 230h65q-30-101-64-257t-46-244H41z"/><glyph unicode="”" glyph-name="quotedblright" horiz-adv-x="614" d="M256 1462l12-20q-75-265-174-481H29q29 96 61 241t49 260h117zm317 0l13-20q-36-128-85-261t-89-220h-66q30 98 63 248t48 253h116z"/><glyph unicode="„" glyph-name="quotedblbase" horiz-adv-x="768" d="M295 238l12-20Q232-47 133-263H68q29 96 61 241t49 260h117zm317 0l13-20Q589 90 540-43t-89-220h-66q30 98 63 248t48 253h116z"/><glyph unicode="•" glyph-name="bullet" horiz-adv-x="770" d="M231 748q0 89 40 134t114 46q73 0 113-47t41-133q0-85-41-133t-113-48q-72 0-113 47t-41 134z"/><glyph unicode="‹" glyph-name="guilsinglleft" horiz-adv-x="524" d="M82 543l309 393 62-43-254-363 254-362-62-43L82 516v27z"/><glyph unicode="›" glyph-name="guilsinglright" horiz-adv-x="524" d="M442 518L133 125l-61 43 254 362L72 893l61 43 309-391v-27z"/></font>
</defs>
</svg>
